<svg width="32" height="32" viewBox="0 0 32 32" fill="none" xmlns="http://www.w3.org/2000/svg">
<path d="M2.3326 4C2.20009 3.99813 2.06853 4.02261 1.94556 4.07202C1.82259 4.12144 1.71067 4.1948 1.6163 4.28784C1.52193 4.38089 1.44699 4.49176 1.39585 4.61401C1.3447 4.73627 1.31836 4.86748 1.31836 5C1.31836 5.13253 1.3447 5.26373 1.39585 5.38599C1.44699 5.50824 1.52193 5.61912 1.6163 5.71216C1.71067 5.80521 1.82259 5.87857 1.94556 5.92798C2.06853 5.97739 2.20009 6.00187 2.3326 6H4.16984C4.65513 6 5.05966 6.33528 5.15161 6.8125L5.34823 7.84375C5.34878 7.84681 5.34895 7.84981 5.34953 7.85287L5.88599 10.6667H7.92245L7.54094 8.66667H28.4576L26.5331 18.7695C26.3245 19.8689 25.3595 20.6667 24.2402 20.6667H11.7584C10.6397 20.6667 9.67408 19.8689 9.46542 18.7695L9.44588 18.6667H7.40943L7.50187 19.1445C7.89054 21.1852 9.68105 22.6667 11.7584 22.6667H24.2402C26.3188 22.6667 28.1093 21.1852 28.498 19.1445L30.649 7.85287C30.7043 7.56087 30.6261 7.25928 30.4368 7.02995C30.2468 6.79995 29.9639 6.66667 29.6659 6.66667H7.15943L7.11646 6.4388C6.84771 5.03036 5.60392 4 4.16984 4H2.3326ZM2.3326 12C2.20009 11.9981 2.06853 12.0226 1.94556 12.072C1.82259 12.1214 1.71067 12.1948 1.6163 12.2878C1.52193 12.3809 1.44699 12.4918 1.39585 12.614C1.3447 12.7363 1.31836 12.8675 1.31836 13C1.31836 13.1325 1.3447 13.2637 1.39585 13.386C1.44699 13.5082 1.52193 13.6191 1.6163 13.7122C1.71067 13.8052 1.82259 13.8786 1.94556 13.928C2.06853 13.9774 2.20009 14.0019 2.3326 14H10.9993C11.1318 14.0019 11.2633 13.9774 11.3863 13.928C11.5093 13.8786 11.6212 13.8052 11.7156 13.7122C11.8099 13.6191 11.8849 13.5082 11.936 13.386C11.9872 13.2637 12.0135 13.1325 12.0135 13C12.0135 12.8675 11.9872 12.7363 11.936 12.614C11.8849 12.4918 11.8099 12.3809 11.7156 12.2878C11.6212 12.1948 11.5093 12.1214 11.3863 12.072C11.2633 12.0226 11.1318 11.9981 10.9993 12H2.3326ZM3.66594 15.3333C3.53342 15.3315 3.40186 15.3559 3.27889 15.4054C3.15592 15.4548 3.044 15.5281 2.94963 15.6212C2.85526 15.7142 2.78033 15.8251 2.72918 15.9473C2.67803 16.0696 2.65169 16.2008 2.65169 16.3333C2.65169 16.4659 2.67803 16.5971 2.72918 16.7193C2.78033 16.8416 2.85526 16.9524 2.94963 17.0455C3.044 17.1385 3.15592 17.2119 3.27889 17.2613C3.40186 17.3107 3.53342 17.3352 3.66594 17.3333H12.3326C12.4651 17.3352 12.5967 17.3107 12.7196 17.2613C12.8426 17.2119 12.9545 17.1385 13.0489 17.0455C13.1433 16.9524 13.2182 16.8416 13.2694 16.7193C13.3205 16.5971 13.3468 16.4659 13.3468 16.3333C13.3468 16.2008 13.3205 16.0696 13.2694 15.9473C13.2182 15.8251 13.1433 15.7142 13.0489 15.6212C12.9545 15.5281 12.8426 15.4548 12.7196 15.4054C12.5967 15.3559 12.4651 15.3315 12.3326 15.3333H3.66594ZM13.3326 24C12.8022 24 12.2935 24.2107 11.9184 24.5858C11.5433 24.9609 11.3326 25.4696 11.3326 26C11.3326 26.5304 11.5433 27.0391 11.9184 27.4142C12.2935 27.7893 12.8022 28 13.3326 28C13.863 28 14.3717 27.7893 14.7468 27.4142C15.1219 27.0391 15.3326 26.5304 15.3326 26C15.3326 25.4696 15.1219 24.9609 14.7468 24.5858C14.3717 24.2107 13.863 24 13.3326 24ZM22.6659 24C22.1355 24 21.6268 24.2107 21.2517 24.5858C20.8766 24.9609 20.6659 25.4696 20.6659 26C20.6659 26.5304 20.8766 27.0391 21.2517 27.4142C21.6268 27.7893 22.1355 28 22.6659 28C23.1964 28 23.7051 27.7893 24.0801 27.4142C24.4552 27.0391 24.6659 26.5304 24.6659 26C24.6659 25.4696 24.4552 24.9609 24.0801 24.5858C23.7051 24.2107 23.1964 24 22.6659 24Z" fill="#2B3646" style="fill:#2B3646;fill:color(display-p3 0.1686 0.2118 0.2745);fill-opacity:1;"/>
</svg>
