<svg width="32" height="32" viewBox="0 0 32 32" fill="none" xmlns="http://www.w3.org/2000/svg">
<path d="M9.99935 4.66666C5.96098 4.66666 2.66602 7.96163 2.66602 12C2.66602 14.7308 4.72445 17.3019 7.23372 19.9388C9.743 22.5757 12.8316 25.2463 15.2923 27.707C15.4799 27.8945 15.7342 27.9998 15.9993 27.9998C16.2645 27.9998 16.5188 27.8945 16.7064 27.707C19.1671 25.2463 22.2557 22.5757 24.765 19.9388C27.2743 17.3019 29.3327 14.7308 29.3327 12C29.3327 7.96163 26.0377 4.66666 21.9993 4.66666C19.6817 4.66666 17.6639 5.91099 15.9993 8.02474C14.3348 5.91099 12.317 4.66666 9.99935 4.66666ZM9.99935 6.66666C11.9517 6.66666 13.5769 7.7056 15.1543 10.2005C15.2445 10.343 15.3693 10.4604 15.517 10.5418C15.6648 10.6231 15.8307 10.6657 15.9993 10.6657C16.168 10.6657 16.3339 10.6231 16.4817 10.5418C16.6294 10.4604 16.7542 10.343 16.8444 10.2005C18.4218 7.7056 20.047 6.66666 21.9993 6.66666C24.957 6.66666 27.3327 9.04237 27.3327 12C27.3327 13.6026 25.7244 16.0314 23.3171 18.5612C21.1217 20.8681 18.3929 23.2783 15.9993 25.612C13.6058 23.2783 10.877 20.8681 8.68164 18.5612C6.27425 16.0314 4.66602 13.6026 4.66602 12C4.66602 9.04237 7.04172 6.66666 9.99935 6.66666Z" fill="#2B3646" style="fill:#2B3646;fill:color(display-p3 0.1686 0.2118 0.2745);fill-opacity:1;"/>
</svg>
