<svg width="30" height="30" viewBox="0 0 30 30" fill="none" xmlns="http://www.w3.org/2000/svg">
<g id="WhatsApp">
<path id="Vector" d="M3.04297 27.0644L4.72672 20.9175C3.68797 19.1187 3.14172 17.0775 3.14234 14.9869C3.14547 8.44625 8.46797 3.125 15.0092 3.125C18.1836 3.12625 21.1623 4.36188 23.403 6.60375C25.643 8.84625 26.8767 11.8263 26.8755 14.9963C26.873 21.5369 21.5492 26.8587 15.0092 26.8587H15.0042C13.0186 26.8581 11.0667 26.36 9.33359 25.4144L3.04297 27.0644Z" fill="white" style="fill:white;fill-opacity:1;"/>
<path id="Vector_2" d="M3.0427 27.3769C2.9602 27.3769 2.8802 27.3444 2.82082 27.2844C2.7427 27.205 2.71207 27.0894 2.74145 26.9825L4.39082 20.96C3.36832 19.1437 2.82895 17.0812 2.8302 14.9875C2.8327 8.27375 8.29582 2.8125 15.0089 2.8125C18.2652 2.81375 21.3246 4.08188 23.6239 6.38313C25.9233 8.685 27.1889 11.7437 27.1877 14.9963C27.1852 21.7094 21.7214 27.1712 15.0089 27.1712C13.0158 27.1706 11.0439 26.6787 9.29395 25.7481L3.12207 27.3662C3.09582 27.3737 3.06957 27.3769 3.0427 27.3769Z" fill="white" style="fill:white;fill-opacity:1;"/>
<path id="Vector_3" d="M15.0095 3.125C18.1838 3.12625 21.1626 4.36188 23.4032 6.60375C25.6432 8.84625 26.877 11.8263 26.8757 14.9963C26.8732 21.5369 21.5495 26.8587 15.0095 26.8587H15.0045C13.0189 26.8581 11.067 26.36 9.33385 25.4144L3.04323 27.0644L4.72698 20.9175C3.68823 19.1187 3.14198 17.0775 3.1426 14.9869C3.14573 8.44625 8.46823 3.125 15.0095 3.125ZM15.0095 2.5C8.12448 2.5 2.52073 8.10125 2.5176 14.9869C2.51698 17.0913 3.04823 19.165 4.05573 21.0006L2.4401 26.9C2.38135 27.1156 2.44135 27.3456 2.59885 27.5044C2.7176 27.6244 2.87823 27.69 3.04323 27.69C3.09635 27.69 3.14948 27.6831 3.20198 27.6694L9.25635 26.0819C11.0238 26.9994 13.0051 27.4837 15.0045 27.4844C21.8945 27.4844 27.4982 21.8825 27.5013 14.9969C27.5026 11.66 26.2045 8.5225 23.8463 6.1625C21.487 3.80187 18.3488 2.50125 15.0095 2.5Z" fill="#CFD8DC" style="fill:#CFD8DC;fill:color(display-p3 0.8118 0.8471 0.8627);fill-opacity:1;"/>
<path id="Vector_4" d="M21.9845 8.02C20.122 6.15625 17.6464 5.12937 15.0114 5.12875C9.57141 5.12875 5.14703 9.55125 5.14453 14.9875C5.14391 16.8506 5.66516 18.6644 6.65266 20.235L6.88766 20.6081L5.89078 24.2462L9.62391 23.2675L9.98453 23.4812C11.4983 24.38 13.2345 24.855 15.0045 24.8556H15.0083C20.4445 24.8556 24.8689 20.4325 24.8708 14.9956C24.8714 12.3612 23.847 9.88375 21.9845 8.02Z" fill="#40C351" style="fill:#40C351;fill:color(display-p3 0.2510 0.7647 0.3176);fill-opacity:1;"/>
<path id="Vector_5" fill-rule="evenodd" clip-rule="evenodd" d="M12.0429 10.0281C11.821 9.53438 11.5873 9.52438 11.3754 9.51563C11.2023 9.50813 11.0048 9.50875 10.8073 9.50875C10.6098 9.50875 10.2885 9.58313 10.0166 9.88C9.74477 10.1769 8.97852 10.8938 8.97852 12.3525C8.97852 13.8113 10.041 15.2213 10.1891 15.4188C10.3373 15.6163 12.2404 18.7056 15.2541 19.8944C17.7585 20.8819 18.2685 20.6856 18.8123 20.6363C19.356 20.5869 20.5666 19.9194 20.8135 19.2269C21.0604 18.5344 21.0604 17.9412 20.9866 17.8175C20.9123 17.6937 20.7148 17.62 20.4185 17.4713C20.1223 17.3225 18.6641 16.6056 18.3923 16.5069C18.1204 16.4081 17.9229 16.3588 17.7248 16.6556C17.5273 16.9519 16.9591 17.62 16.786 17.8175C16.6129 18.0156 16.4398 18.0406 16.1435 17.8919C15.8473 17.7431 14.8923 17.4306 13.7591 16.4206C12.8779 15.635 12.2829 14.6644 12.1098 14.3675C11.9366 14.0713 12.091 13.9106 12.2398 13.7625C12.3729 13.6294 12.536 13.4162 12.6848 13.2431C12.8329 13.07 12.8823 12.9463 12.981 12.7488C13.0798 12.5506 13.0304 12.3775 12.956 12.2294C12.8829 12.0806 12.3066 10.6144 12.0429 10.0281Z" fill="white" style="fill:white;fill-opacity:1;"/>
</g>
</svg>
