<svg width="429" height="66" viewBox="0 0 429 66" fill="none" xmlns="http://www.w3.org/2000/svg">
<path fill-rule="evenodd" clip-rule="evenodd" d="M0 33.8509C23.775 10.9436 36.8941 4.50007 60.0371 0.0544586C56.011 1.67171 54.2033 2.93436 51.4604 5.56807V27.7246C51.4604 31.1081 48.7176 33.8509 45.3342 33.8509H0ZM21.1355 27.5204C22.8272 27.5204 24.1986 26.149 24.1986 24.4573C24.1986 22.7656 22.8272 21.3942 21.1355 21.3942C19.4438 21.3942 18.0724 22.7656 18.0724 24.4573C18.0724 26.149 19.4438 27.5204 21.1355 27.5204Z" fill="#FFAA29" style="fill:#FFAA29;fill:color(display-p3 1.0000 0.6650 0.1625);fill-opacity:1;"/>
<path d="M24.1986 24.4573C24.1986 26.149 22.8272 27.5204 21.1355 27.5204C19.4438 27.5204 18.0724 26.149 18.0724 24.4573C18.0724 22.7656 19.4438 21.3942 21.1355 21.3942C22.8272 21.3942 24.1986 22.7656 24.1986 24.4573Z" fill="white" style="fill:white;fill-opacity:1;"/>
<circle cx="52.4822" cy="64.1758" r="1.42946" fill="#2B3646" style="fill:#2B3646;fill:color(display-p3 0.1686 0.2118 0.2745);fill-opacity:1;"/>
<circle cx="52.4822" cy="60.0916" r="1.42946" fill="#2B3646" style="fill:#2B3646;fill:color(display-p3 0.1686 0.2118 0.2745);fill-opacity:1;"/>
<circle cx="56.5662" cy="60.0916" r="1.42946" fill="#2B3646" style="fill:#2B3646;fill:color(display-p3 0.1686 0.2118 0.2745);fill-opacity:1;"/>
<circle cx="52.4822" cy="56.0074" r="1.42946" fill="#2B3646" style="fill:#2B3646;fill:color(display-p3 0.1686 0.2118 0.2745);fill-opacity:1;"/>
<circle cx="56.5662" cy="56.0074" r="1.42946" fill="#2B3646" style="fill:#2B3646;fill:color(display-p3 0.1686 0.2118 0.2745);fill-opacity:1;"/>
<circle cx="60.6502" cy="56.0074" r="1.42946" fill="#2B3646" style="fill:#2B3646;fill:color(display-p3 0.1686 0.2118 0.2745);fill-opacity:1;"/>
<circle cx="52.4822" cy="51.9233" r="1.42946" fill="#2B3646" style="fill:#2B3646;fill:color(display-p3 0.1686 0.2118 0.2745);fill-opacity:1;"/>
<circle cx="56.5662" cy="51.9233" r="1.42946" fill="#2B3646" style="fill:#2B3646;fill:color(display-p3 0.1686 0.2118 0.2745);fill-opacity:1;"/>
<circle cx="60.6502" cy="51.9233" r="1.42946" fill="#2B3646" style="fill:#2B3646;fill:color(display-p3 0.1686 0.2118 0.2745);fill-opacity:1;"/>
<circle cx="64.7341" cy="51.9233" r="1.42946" fill="#2B3646" style="fill:#2B3646;fill:color(display-p3 0.1686 0.2118 0.2745);fill-opacity:1;"/>
<circle cx="52.4822" cy="47.8391" r="1.42946" fill="#2B3646" style="fill:#2B3646;fill:color(display-p3 0.1686 0.2118 0.2745);fill-opacity:1;"/>
<circle cx="56.5662" cy="47.8391" r="1.42946" fill="#2B3646" style="fill:#2B3646;fill:color(display-p3 0.1686 0.2118 0.2745);fill-opacity:1;"/>
<circle cx="60.6502" cy="47.8391" r="1.42946" fill="#2B3646" style="fill:#2B3646;fill:color(display-p3 0.1686 0.2118 0.2745);fill-opacity:1;"/>
<circle cx="64.7341" cy="47.8391" r="1.42946" fill="#2B3646" style="fill:#2B3646;fill:color(display-p3 0.1686 0.2118 0.2745);fill-opacity:1;"/>
<circle cx="68.8181" cy="47.8391" r="1.42946" fill="#2B3646" style="fill:#2B3646;fill:color(display-p3 0.1686 0.2118 0.2745);fill-opacity:1;"/>
<circle cx="52.4822" cy="43.7549" r="1.42946" fill="#2B3646" style="fill:#2B3646;fill:color(display-p3 0.1686 0.2118 0.2745);fill-opacity:1;"/>
<circle cx="56.5662" cy="43.7549" r="1.42946" fill="#2B3646" style="fill:#2B3646;fill:color(display-p3 0.1686 0.2118 0.2745);fill-opacity:1;"/>
<circle cx="60.6502" cy="43.7549" r="1.42946" fill="#2B3646" style="fill:#2B3646;fill:color(display-p3 0.1686 0.2118 0.2745);fill-opacity:1;"/>
<circle cx="64.7341" cy="43.7549" r="1.42946" fill="#2B3646" style="fill:#2B3646;fill:color(display-p3 0.1686 0.2118 0.2745);fill-opacity:1;"/>
<circle cx="68.8181" cy="43.7549" r="1.42946" fill="#2B3646" style="fill:#2B3646;fill:color(display-p3 0.1686 0.2118 0.2745);fill-opacity:1;"/>
<circle cx="72.9021" cy="43.7549" r="1.42946" fill="#2B3646" style="fill:#2B3646;fill:color(display-p3 0.1686 0.2118 0.2745);fill-opacity:1;"/>
<circle cx="52.4822" cy="39.6708" r="1.42946" fill="#2B3646" style="fill:#2B3646;fill:color(display-p3 0.1686 0.2118 0.2745);fill-opacity:1;"/>
<circle cx="56.5662" cy="39.6708" r="1.42946" fill="#2B3646" style="fill:#2B3646;fill:color(display-p3 0.1686 0.2118 0.2745);fill-opacity:1;"/>
<circle cx="60.6502" cy="39.6708" r="1.42946" fill="#2B3646" style="fill:#2B3646;fill:color(display-p3 0.1686 0.2118 0.2745);fill-opacity:1;"/>
<circle cx="64.7341" cy="39.6708" r="1.42946" fill="#2B3646" style="fill:#2B3646;fill:color(display-p3 0.1686 0.2118 0.2745);fill-opacity:1;"/>
<circle cx="68.8181" cy="39.6708" r="1.42946" fill="#2B3646" style="fill:#2B3646;fill:color(display-p3 0.1686 0.2118 0.2745);fill-opacity:1;"/>
<circle cx="72.9021" cy="39.6708" r="1.42946" fill="#2B3646" style="fill:#2B3646;fill:color(display-p3 0.1686 0.2118 0.2745);fill-opacity:1;"/>
<circle cx="76.9881" cy="39.6708" r="1.42946" fill="#2B3646" style="fill:#2B3646;fill:color(display-p3 0.1686 0.2118 0.2745);fill-opacity:1;"/>
<circle cx="52.4822" cy="35.5866" r="1.42946" fill="#2B3646" style="fill:#2B3646;fill:color(display-p3 0.1686 0.2118 0.2745);fill-opacity:1;"/>
<circle cx="56.5662" cy="35.5866" r="1.42946" fill="#2B3646" style="fill:#2B3646;fill:color(display-p3 0.1686 0.2118 0.2745);fill-opacity:1;"/>
<circle cx="60.6502" cy="35.5866" r="1.42946" fill="#2B3646" style="fill:#2B3646;fill:color(display-p3 0.1686 0.2118 0.2745);fill-opacity:1;"/>
<circle cx="64.7341" cy="35.5866" r="1.42946" fill="#2B3646" style="fill:#2B3646;fill:color(display-p3 0.1686 0.2118 0.2745);fill-opacity:1;"/>
<circle cx="68.8181" cy="35.5866" r="1.42946" fill="#2B3646" style="fill:#2B3646;fill:color(display-p3 0.1686 0.2118 0.2745);fill-opacity:1;"/>
<circle cx="72.9021" cy="35.5866" r="1.42946" fill="#2B3646" style="fill:#2B3646;fill:color(display-p3 0.1686 0.2118 0.2745);fill-opacity:1;"/>
<circle cx="76.9881" cy="35.5866" r="1.42946" fill="#2B3646" style="fill:#2B3646;fill:color(display-p3 0.1686 0.2118 0.2745);fill-opacity:1;"/>
<circle cx="81.072" cy="35.5866" r="1.42946" fill="#2B3646" style="fill:#2B3646;fill:color(display-p3 0.1686 0.2118 0.2745);fill-opacity:1;"/>
<path d="M100.514 16.1289H107.861C110.967 16.1289 113.334 16.7793 114.963 18.0801C116.592 19.3809 117.406 21.2735 117.406 23.7578C117.406 26.2774 116.516 28.1875 114.734 29.4883C112.965 30.7891 110.457 31.4395 107.211 31.4395H105.312V40H100.514V16.1289ZM105.312 27.3262H106.789C108.898 27.3262 110.369 27.0391 111.201 26.4649C112.045 25.8906 112.467 25 112.467 23.793C112.467 22.5625 112.074 21.6777 111.289 21.1387C110.516 20.5879 109.109 20.3125 107.07 20.3125H105.312V27.3262ZM125.668 25.3926H128.797C135.184 25.3926 138.377 27.8242 138.377 32.6875C138.377 37.5625 135.207 40 128.867 40H120.869V16.1289H125.668V25.3926ZM125.668 35.9043H128.146C130.021 35.9043 131.393 35.6641 132.26 35.1836C133.139 34.6914 133.578 33.8594 133.578 32.6875C133.578 30.5547 131.973 29.4883 128.762 29.4883H125.668V35.9043ZM146.076 40H141.277V16.1289H146.076V40ZM155.902 25.4277H159.031C165.418 25.4277 168.611 27.8594 168.611 32.7227C168.611 37.5742 165.441 40 159.102 40H151.104V16.1289H166.625L164.498 20.3125H155.902V25.4277ZM155.902 35.9395H158.381C160.256 35.9395 161.627 35.6992 162.494 35.2188C163.373 34.7266 163.812 33.8945 163.812 32.7227C163.812 30.5899 162.207 29.5235 158.996 29.5235H155.902V35.9395ZM191.604 17.6758L189.336 21.7188C187.625 20.5586 185.744 19.9785 183.693 19.9785C181.256 19.9785 179.322 20.7168 177.893 22.1934C176.475 23.6699 175.766 25.6211 175.766 28.0469C175.766 30.4727 176.486 32.4297 177.928 33.918C179.381 35.4063 181.303 36.1504 183.693 36.1504C185.557 36.1504 187.402 35.5996 189.23 34.4981L191.533 38.4531C189.283 39.8008 186.658 40.4746 183.658 40.4746C179.943 40.4746 176.879 39.3027 174.465 36.959C172.051 34.6035 170.844 31.6328 170.844 28.0469C170.844 24.4258 172.057 21.461 174.482 19.1524C176.908 16.832 179.967 15.6719 183.658 15.6719C186.635 15.6719 189.283 16.3399 191.604 17.6758ZM215.756 40H210.975V20.3125H199.777V40H194.979V16.1289H215.756V40ZM236.955 40H220.783V16.1289H236.674L234.213 20.3125H225.582V25.7442H233.422V29.9277H225.582V35.8164H234.547L236.955 40ZM262.777 35.8164L258.066 45.0801H254.428L255.904 40H239.873V16.1289H244.672V35.8164H255.869V16.1289H260.65V35.8164H262.777ZM286.455 40H281.674V20.3125H270.477V40H265.678V16.1289H286.455V40ZM291.482 16.1289H298.83C301.936 16.1289 304.303 16.7793 305.932 18.0801C307.561 19.3809 308.375 21.2735 308.375 23.7578C308.375 26.2774 307.484 28.1875 305.703 29.4883C303.934 30.7891 301.426 31.4395 298.18 31.4395H296.281V40H291.482V16.1289ZM296.281 27.3262H297.758C299.867 27.3262 301.338 27.0391 302.17 26.4649C303.014 25.8906 303.436 25 303.436 23.793C303.436 22.5625 303.043 21.6777 302.258 21.1387C301.484 20.5879 300.078 20.3125 298.039 20.3125H296.281V27.3262ZM323.07 15.6719C326.598 15.6719 329.58 16.8672 332.018 19.2578C334.455 21.6367 335.674 24.5664 335.674 28.0469C335.674 31.5508 334.461 34.4981 332.035 36.8887C329.609 39.2793 326.621 40.4746 323.07 40.4746C319.543 40.4746 316.561 39.2793 314.123 36.8887C311.697 34.4863 310.484 31.5391 310.484 28.0469C310.484 24.5664 311.697 21.6367 314.123 19.2578C316.561 16.8672 319.543 15.6719 323.07 15.6719ZM323.07 36.1504C325.332 36.1504 327.178 35.3828 328.607 33.8477C330.037 32.3008 330.752 30.3672 330.752 28.0469C330.752 25.7383 330.037 23.8164 328.607 22.2813C327.178 20.7461 325.332 19.9785 323.07 19.9785C320.82 19.9785 318.98 20.7461 317.551 22.2813C316.121 23.8164 315.406 25.7383 315.406 28.0469C315.406 30.3555 316.109 32.2832 317.516 33.8301C318.934 35.377 320.785 36.1504 323.07 36.1504ZM360.02 35.8164L355.291 45.0801H351.67L353.146 40H341.791L340.314 45.0801H337.01V35.8164C338.076 35.6758 338.879 35.3711 339.418 34.9024C339.957 34.4336 340.309 33.8652 340.473 33.1973C340.637 32.5176 340.719 31.6797 340.719 30.6836V16.1289H357.893V35.8164H360.02ZM353.094 35.8164V20.3125H345.148V29.6641C345.148 31.3281 345.055 32.5645 344.867 33.3731C344.68 34.1817 344.27 34.9961 343.637 35.8164H353.094ZM383.838 16.1289L375.664 32.3711C374.164 35.3477 372.752 37.4453 371.428 38.6641C370.115 39.8711 368.516 40.4746 366.629 40.4746C365.023 40.4746 363.535 40.1699 362.164 39.5606L363.939 35.6406C364.947 36.0508 365.832 36.2559 366.594 36.2559C367.426 36.2559 368.158 36.0098 368.791 35.5176C369.424 35.0137 370.121 34.0235 370.883 32.5469L361.268 16.1289H366.453L373.186 27.8008L378.863 16.1289H383.838ZM407.604 40H401.592L397.215 34.252C395.527 32.0488 394.602 30.8477 394.438 30.6485C394.273 30.4375 394.039 30.2442 393.734 30.0684C393.441 29.8809 393.125 29.7578 392.785 29.6992C392.445 29.6289 392.023 29.5938 391.52 29.5938V40H386.721V16.1289H391.52V25.6035C393.418 25.4981 395.17 23.875 396.775 20.7344C397.748 18.836 398.785 17.5176 399.887 16.7793C400.988 16.041 402.359 15.6719 404 15.6719C404.82 15.6719 405.529 15.7188 406.127 15.8125V20.0137C405.775 19.9902 405.213 19.9785 404.439 19.9785C403.689 19.9785 403.039 20.166 402.488 20.541C401.949 20.9043 401.434 21.584 400.941 22.5801C399.734 25.041 398.129 26.5996 396.125 27.2559C397.109 27.4785 398.439 28.6328 400.115 30.7188L407.604 40ZM428.451 20.3125H420.963V40H416.182V20.3125H408.693V16.1289H428.451V20.3125Z" fill="#2B3646" style="fill:#2B3646;fill:color(display-p3 0.1686 0.2118 0.2745);fill-opacity:1;"/>
<path d="M107.058 46.7168L103.879 53.0332C103.296 54.1908 102.746 55.0065 102.231 55.4805C101.721 55.9499 101.099 56.1846 100.365 56.1846C99.7409 56.1846 99.1621 56.0661 98.6289 55.8291L99.3193 54.3047C99.7113 54.4642 100.055 54.544 100.352 54.544C100.675 54.544 100.96 54.4483 101.206 54.2569C101.452 54.0609 101.723 53.6758 102.02 53.1016L98.2803 46.7168H100.297L102.915 51.2559L105.123 46.7168H107.058ZM117.756 56H116.04V52.4727L112.062 56.1846H111.501V49.4649H113.224V52.9922L117.202 49.2666H117.756V56ZM125.2 55.5078C124.425 55.959 123.557 56.1846 122.596 56.1846C121.566 56.1846 120.716 55.8542 120.046 55.1934C119.381 54.5326 119.048 53.7328 119.048 52.794C119.048 51.7777 119.385 50.9369 120.06 50.2715C120.739 49.6016 121.611 49.2666 122.678 49.2666C123.658 49.2666 124.473 49.4899 125.125 49.9365L124.387 51.1397C123.885 50.8252 123.339 50.668 122.746 50.668C122.158 50.668 121.691 50.8617 121.345 51.249C121.003 51.6319 120.832 52.1423 120.832 52.7803C120.832 53.3636 121.005 53.8444 121.352 54.2227C121.698 54.5964 122.131 54.7832 122.65 54.7832C123.229 54.7832 123.84 54.61 124.482 54.2637L125.2 55.5078ZM132.077 49.4649L131.305 50.9756H129.568V56H127.846V50.9756H125.843V49.4649H132.077ZM135.871 49.2666C136.956 49.2666 137.838 49.6016 138.517 50.2715C139.2 50.9369 139.542 51.7595 139.542 52.7393C139.542 53.7054 139.202 54.5212 138.523 55.1865C137.844 55.8519 136.96 56.1846 135.871 56.1846C134.782 56.1846 133.898 55.8519 133.219 55.1865C132.54 54.5166 132.2 53.7009 132.2 52.7393C132.2 51.7731 132.535 50.9528 133.205 50.2783C133.875 49.6039 134.764 49.2666 135.871 49.2666ZM135.871 54.7832C136.445 54.7832 136.903 54.5895 137.245 54.2022C137.587 53.8102 137.758 53.3226 137.758 52.7393C137.758 52.1377 137.587 51.6432 137.245 51.2559C136.903 50.8639 136.445 50.668 135.871 50.668C135.297 50.668 134.839 50.8639 134.497 51.2559C134.155 51.6432 133.984 52.1377 133.984 52.7393C133.984 53.318 134.155 53.8034 134.497 54.1953C134.843 54.5873 135.301 54.7832 135.871 54.7832ZM147.068 56H144.983L143.965 54.4893C143.628 53.9925 143.423 53.6986 143.35 53.6074C143.277 53.5163 143.195 53.4411 143.104 53.3819C143.017 53.318 142.935 53.2861 142.857 53.2861H142.55V56H140.827V49.4649H142.55V51.8027H142.687C143.037 51.8027 143.407 51.4245 143.794 50.668C144.282 49.7337 144.936 49.2666 145.756 49.2666C145.897 49.2666 146.084 49.294 146.316 49.3486V50.75C146.166 50.7227 146.038 50.709 145.934 50.709C145.601 50.709 145.327 50.9323 145.113 51.3789C144.781 52.0443 144.411 52.4225 144.006 52.5137C144.293 52.5593 144.628 52.8304 145.011 53.3272L147.068 56ZM151.006 49.2666C152.09 49.2666 152.972 49.6016 153.651 50.2715C154.335 50.9369 154.677 51.7595 154.677 52.7393C154.677 53.7054 154.337 54.5212 153.658 55.1865C152.979 55.8519 152.095 56.1846 151.006 56.1846C149.917 56.1846 149.033 55.8519 148.354 55.1865C147.674 54.5166 147.335 53.7009 147.335 52.7393C147.335 51.7731 147.67 50.9528 148.34 50.2783C149.01 49.6039 149.898 49.2666 151.006 49.2666ZM151.006 54.7832C151.58 54.7832 152.038 54.5895 152.38 54.2022C152.722 53.8102 152.893 53.3226 152.893 52.7393C152.893 52.1377 152.722 51.6432 152.38 51.2559C152.038 50.8639 151.58 50.668 151.006 50.668C150.432 50.668 149.974 50.8639 149.632 51.2559C149.29 51.6432 149.119 52.1377 149.119 52.7393C149.119 53.318 149.29 53.8034 149.632 54.1953C149.978 54.5873 150.436 54.7832 151.006 54.7832ZM160.733 52.5137C161.162 52.6003 161.499 52.7803 161.745 53.0537C161.996 53.3226 162.121 53.6325 162.121 53.9834C162.121 54.6169 161.941 55.0817 161.581 55.3779C161.221 55.6696 160.804 55.8473 160.33 55.9111C159.856 55.9704 159.138 56 158.177 56H155.962V49.4649H158.888C159.804 49.4649 160.503 49.6061 160.986 49.8887C161.474 50.1712 161.718 50.5882 161.718 51.1397C161.718 51.7868 161.39 52.2448 160.733 52.5137ZM157.685 51.9942H159.045C159.66 51.9942 159.968 51.78 159.968 51.3516C159.968 51.1602 159.874 51.0029 159.688 50.8799C159.501 50.7569 159.248 50.6953 158.929 50.6953H157.685V51.9942ZM157.685 54.7695H159.011C159.899 54.7695 160.344 54.5029 160.344 53.9697C160.344 53.473 159.956 53.2246 159.182 53.2246H157.685V54.7695ZM175.075 56H172.737L171.035 53.7647C170.379 52.9079 170.019 52.4408 169.955 52.3633C169.891 52.2813 169.8 52.2061 169.682 52.1377C169.568 52.0648 169.445 52.0169 169.312 51.9942C169.18 51.9668 169.016 51.9531 168.82 51.9531V56H166.954V46.7168H168.82V50.4014C169.559 50.3604 170.24 49.7292 170.864 48.5078C171.243 47.7695 171.646 47.2569 172.074 46.9697C172.503 46.6826 173.036 46.5391 173.674 46.5391C173.993 46.5391 174.269 46.5573 174.501 46.5938V48.2276C174.364 48.2184 174.146 48.2139 173.845 48.2139C173.553 48.2139 173.3 48.2868 173.086 48.4326C172.876 48.5739 172.676 48.8382 172.484 49.2256C172.015 50.1826 171.391 50.7888 170.611 51.044C170.994 51.1305 171.511 51.5794 172.163 52.3906L175.075 56ZM183.107 55.5967L181.891 56.1846C181.544 55.861 181.371 55.5375 181.371 55.2139C180.729 55.861 179.897 56.1846 178.876 56.1846C177.873 56.1846 177.051 55.861 176.408 55.2139C175.766 54.5667 175.444 53.7373 175.444 52.7256C175.444 51.7731 175.782 50.9597 176.456 50.2852C177.131 49.6061 177.955 49.2666 178.931 49.2666C179.951 49.2666 180.756 49.5742 181.344 50.1895L182.752 49.4649V53.9971C182.752 54.5212 182.782 54.8858 182.841 55.0908C182.9 55.2914 182.989 55.46 183.107 55.5967ZM179.143 54.7832C179.721 54.7832 180.186 54.5918 180.537 54.209C180.888 53.8216 181.063 53.3317 181.063 52.7393C181.063 52.1104 180.895 51.6091 180.558 51.2354C180.22 50.8571 179.758 50.668 179.17 50.668C178.573 50.668 178.099 50.8594 177.748 51.2422C177.402 51.6205 177.229 52.1058 177.229 52.6983C177.229 53.2953 177.399 53.792 177.741 54.1885C178.088 54.585 178.555 54.7832 179.143 54.7832ZM192.138 56H190.442L189.957 52.7256L188.118 56.1846H187.53L185.896 52.7119L185.35 56H183.764L185.138 49.2666H185.78L187.954 53.5938L190.224 49.2666H190.853L192.138 56ZM198.352 49.4649V56H196.629V53.9697H195.2C194.339 53.9697 193.715 53.7852 193.327 53.416C192.944 53.0423 192.753 52.3724 192.753 51.4063V49.4649H194.476V51.1123C194.476 51.5361 194.537 51.8552 194.66 52.0694C194.783 52.279 194.943 52.4157 195.139 52.4795C195.339 52.5388 195.594 52.5684 195.904 52.5684H196.643V49.4649H198.352ZM207.32 55.5967L206.104 56.1846C205.757 55.861 205.584 55.5375 205.584 55.2139C204.941 55.861 204.11 56.1846 203.089 56.1846C202.086 56.1846 201.264 55.861 200.621 55.2139C199.979 54.5667 199.657 53.7373 199.657 52.7256C199.657 51.7731 199.994 50.9597 200.669 50.2852C201.343 49.6061 202.168 49.2666 203.144 49.2666C204.164 49.2666 204.969 49.5742 205.557 50.1895L206.965 49.4649V53.9971C206.965 54.5212 206.994 54.8858 207.054 55.0908C207.113 55.2914 207.202 55.46 207.32 55.5967ZM203.355 54.7832C203.934 54.7832 204.399 54.5918 204.75 54.209C205.101 53.8216 205.276 53.3317 205.276 52.7393C205.276 52.1104 205.108 51.6091 204.771 51.2354C204.433 50.8571 203.971 50.668 203.383 50.668C202.786 50.668 202.312 50.8594 201.961 51.2422C201.615 51.6205 201.441 52.1058 201.441 52.6983C201.441 53.2953 201.612 53.792 201.954 54.1885C202.3 54.585 202.768 54.7832 203.355 54.7832ZM214.409 49.4649L213.637 50.9756H211.9V56H210.178V50.9756H208.175V49.4649H214.409ZM221.225 56H219.14L218.121 54.4893C217.784 53.9925 217.579 53.6986 217.506 53.6074C217.433 53.5163 217.351 53.4411 217.26 53.3819C217.173 53.318 217.091 53.2861 217.014 53.2861H216.706V56H214.983V49.4649H216.706V51.8027H216.843C217.194 51.8027 217.563 51.4245 217.95 50.668C218.438 49.7337 219.092 49.2666 219.912 49.2666C220.053 49.2666 220.24 49.294 220.473 49.3486V50.75C220.322 50.7227 220.195 50.709 220.09 50.709C219.757 50.709 219.484 50.9323 219.27 51.3789C218.937 52.0443 218.568 52.4225 218.162 52.5137C218.449 52.5593 218.784 52.8304 219.167 53.3272L221.225 56ZM228.553 56H226.837V52.4727L222.858 56.1846H222.298V49.4649H224.021V52.9922L227.999 49.2666H228.553V56ZM239.429 55.5078C238.654 55.959 237.786 56.1846 236.824 56.1846C235.794 56.1846 234.944 55.8542 234.274 55.1934C233.609 54.5326 233.276 53.7328 233.276 52.794C233.276 51.7777 233.614 50.9369 234.288 50.2715C234.967 49.6016 235.84 49.2666 236.906 49.2666C237.886 49.2666 238.702 49.4899 239.354 49.9365L238.615 51.1397C238.114 50.8252 237.567 50.668 236.975 50.668C236.387 50.668 235.92 50.8617 235.573 51.249C235.231 51.6319 235.061 52.1423 235.061 52.7803C235.061 53.3636 235.234 53.8444 235.58 54.2227C235.926 54.5964 236.359 54.7832 236.879 54.7832C237.458 54.7832 238.068 54.61 238.711 54.2637L239.429 55.5078ZM248.22 56H246.456V49.376L244.85 50.4971V48.7881L247.646 46.5391H248.22V56ZM254.188 52.7666C253.964 52.8304 253.759 52.8623 253.572 52.8623C252.725 52.8623 252.009 52.5638 251.426 51.9668C250.842 51.3652 250.551 50.6133 250.551 49.711C250.551 48.7813 250.861 48.0202 251.48 47.4277C252.105 46.8353 252.905 46.5391 253.88 46.5391C254.864 46.5391 255.662 46.8376 256.272 47.4346C256.883 48.027 257.188 48.8109 257.188 49.7861C257.188 51.4131 255.858 53.5459 253.196 56.1846H250.968C252.444 54.8265 253.518 53.6872 254.188 52.7666ZM253.866 51.3379C254.322 51.3379 254.684 51.183 254.953 50.8731C255.227 50.5632 255.363 50.1621 255.363 49.6699C255.363 49.2142 255.224 48.836 254.946 48.5352C254.673 48.2298 254.317 48.0772 253.88 48.0772C253.456 48.0772 253.098 48.2367 252.807 48.5557C252.515 48.8701 252.369 49.2461 252.369 49.6836C252.369 50.1667 252.51 50.5632 252.793 50.8731C253.076 51.183 253.433 51.3379 253.866 51.3379ZM261.844 52.7666C261.62 52.8304 261.415 52.8623 261.229 52.8623C260.381 52.8623 259.665 52.5638 259.082 51.9668C258.499 51.3652 258.207 50.6133 258.207 49.711C258.207 48.7813 258.517 48.0202 259.137 47.4277C259.761 46.8353 260.561 46.5391 261.536 46.5391C262.521 46.5391 263.318 46.8376 263.929 47.4346C264.539 48.027 264.845 48.8109 264.845 49.7861C264.845 51.4131 263.514 53.5459 260.853 56.1846H258.624C260.101 54.8265 261.174 53.6872 261.844 52.7666ZM261.522 51.3379C261.978 51.3379 262.34 51.183 262.609 50.8731C262.883 50.5632 263.02 50.1621 263.02 49.6699C263.02 49.2142 262.881 48.836 262.603 48.5352C262.329 48.2298 261.974 48.0772 261.536 48.0772C261.112 48.0772 260.755 48.2367 260.463 48.5557C260.171 48.8701 260.025 49.2461 260.025 49.6836C260.025 50.1667 260.167 50.5632 260.449 50.8731C260.732 51.183 261.09 51.3379 261.522 51.3379ZM267.928 49.7861C268.256 49.7087 268.582 49.6699 268.905 49.6699C269.917 49.6699 270.721 49.9616 271.318 50.5449C271.92 51.1283 272.221 51.9007 272.221 52.8623C272.221 53.473 272.086 54.0381 271.817 54.5576C271.549 55.0726 271.154 55.4736 270.635 55.7608C270.12 56.0433 269.495 56.1846 268.762 56.1846C267.559 56.1846 266.458 55.7266 265.46 54.8106L266.499 53.6485C266.845 53.9811 267.203 54.2295 267.572 54.3936C267.941 54.5576 268.32 54.6397 268.707 54.6397C269.245 54.6397 269.662 54.487 269.958 54.1817C270.254 53.8763 270.402 53.4502 270.402 52.9033C270.402 52.361 270.245 51.9304 269.931 51.6113C269.621 51.2878 269.186 51.126 268.625 51.126C268.033 51.126 267.449 51.3174 266.875 51.7002H266.301L266.526 46.7168H272.043L271.175 48.2002H268.01L267.928 49.7861ZM281.6 49.4649L280.889 50.9756H278.817V56H277.095V49.4649H281.6ZM285.469 49.2666C286.553 49.2666 287.435 49.6016 288.114 50.2715C288.798 50.9369 289.14 51.7595 289.14 52.7393C289.14 53.7054 288.8 54.5212 288.121 55.1865C287.442 55.8519 286.558 56.1846 285.469 56.1846C284.38 56.1846 283.495 55.8519 282.816 55.1865C282.137 54.5166 281.798 53.7009 281.798 52.7393C281.798 51.7731 282.133 50.9528 282.803 50.2783C283.473 49.6039 284.361 49.2666 285.469 49.2666ZM285.469 54.7832C286.043 54.7832 286.501 54.5895 286.843 54.2022C287.185 53.8102 287.355 53.3226 287.355 52.7393C287.355 52.1377 287.185 51.6432 286.843 51.2559C286.501 50.8639 286.043 50.668 285.469 50.668C284.895 50.668 284.437 50.8639 284.095 51.2559C283.753 51.6432 283.582 52.1377 283.582 52.7393C283.582 53.318 283.753 53.8034 284.095 54.1953C284.441 54.5873 284.899 54.7832 285.469 54.7832ZM297.104 54.5986L295.436 57.832H294.034L294.581 56H291.464L290.917 57.832H289.728V54.5986H289.987C290.566 54.5075 290.855 53.9811 290.855 53.0195V49.4649H296.42V54.5986H297.104ZM294.697 54.5986V50.8594H292.496V52.917C292.496 53.6781 292.394 54.2386 292.188 54.5986H294.697ZM305.361 55.5967L304.145 56.1846C303.798 55.861 303.625 55.5375 303.625 55.2139C302.982 55.861 302.151 56.1846 301.13 56.1846C300.127 56.1846 299.305 55.861 298.662 55.2139C298.02 54.5667 297.698 53.7373 297.698 52.7256C297.698 51.7731 298.035 50.9597 298.71 50.2852C299.384 49.6061 300.209 49.2666 301.185 49.2666C302.205 49.2666 303.01 49.5742 303.598 50.1895L305.006 49.4649V53.9971C305.006 54.5212 305.035 54.8858 305.095 55.0908C305.154 55.2914 305.243 55.46 305.361 55.5967ZM301.396 54.7832C301.975 54.7832 302.44 54.5918 302.791 54.209C303.142 53.8216 303.317 53.3317 303.317 52.7393C303.317 52.1104 303.149 51.6091 302.812 51.2354C302.474 50.8571 302.012 50.668 301.424 50.668C300.827 50.668 300.353 50.8594 300.002 51.2422C299.656 51.6205 299.482 52.1058 299.482 52.6983C299.482 53.2953 299.653 53.792 299.995 54.1885C300.341 54.585 300.809 54.7832 301.396 54.7832Z" fill="#2B3646" style="fill:#2B3646;fill:color(display-p3 0.1686 0.2118 0.2745);fill-opacity:1;"/>
</svg>
