<svg width="22" height="22" viewBox="0 0 22 22" fill="none" xmlns="http://www.w3.org/2000/svg">
<g clip-path="url(#clip0_107_1483)">
<path d="M8.24955 2.41164V7.41033C7.03468 8.00952 5.55144 8.56728 4.47009 8.67612C4.14377 8.60173 0.853552 7.37274 0.853552 7.37274C0.201802 7.13074 -0.288385 8.07298 0.194698 8.63673L1.34232 9.97593C1.82082 10.5342 1.82082 11.4479 1.34232 12.0062L0.194698 13.3454C-0.288385 13.9091 0.202719 14.8514 0.853552 14.6094C0.853552 14.6094 4.4353 13.2022 4.58288 13.2022V13.1986C4.80199 13.2403 4.84208 13.2374 5.15222 13.3132C5.78751 13.4684 6.49953 13.733 6.78682 13.9094L6.29089 14.4375L7.75899 18.8454L11.4274 16.3998H12.8902C12.7833 17.3016 12.9716 18.309 13.7406 19.037L14.4729 19.7316L17.6167 15.689C17.7461 15.6161 17.8789 15.5505 18.0035 15.467L20.8161 13.5799C21.5999 13.0544 21.9995 12.1518 21.9995 11.2095C21.9995 10.3057 21.6326 9.43962 20.9074 8.90171L17.3267 6.25555L17.2945 6.23406C16.559 5.78083 15.7259 5.53761 14.8811 5.53761H13.4577L8.24955 2.41164ZM10.0829 5.65041L10.7023 6.0228L10.6737 6.04071C10.6737 6.04071 10.4135 6.20748 10.0829 6.40773V5.65041ZM12.7058 7.37095H14.8811C15.3727 7.37095 15.8619 7.51039 16.3223 7.79168L19.8171 10.3752C19.9862 10.5016 20.1662 10.8273 20.1662 11.2095C20.1662 11.6092 19.9688 11.9402 19.7956 12.0563L16.9812 13.9434C16.3606 14.3598 15.6903 14.5664 15.0118 14.5664H11.2627C11.02 14.5664 10.7773 14.4915 10.5394 14.3211L7.93444 12.4556C7.22435 11.9469 6.34914 11.7179 5.58728 11.5318C5.18818 11.4342 4.83968 11.3656 4.58288 11.3187V10.5077C6.1531 10.3862 7.77351 9.69551 9.10892 9.0324C10.5181 8.33267 11.4941 7.68675 11.5796 7.63055C11.9466 7.45594 12.3245 7.37095 12.7058 7.37095ZM17.4162 10.0833C17.1731 10.0833 16.9399 10.1799 16.768 10.3518C16.5961 10.5237 16.4995 10.7569 16.4995 11C16.4995 11.2431 16.5961 11.4763 16.768 11.6482C16.9399 11.8201 17.1731 11.9167 17.4162 11.9167C17.6593 11.9167 17.8925 11.8201 18.0644 11.6482C18.2363 11.4763 18.3329 11.2431 18.3329 11C18.3329 10.7569 18.2363 10.5237 18.0644 10.3518C17.8925 10.1799 17.6593 10.0833 17.4162 10.0833ZM8.43217 15.0659L9.24678 15.6496L8.74011 15.988L8.43217 15.0659Z" fill="white" style="fill:white;fill-opacity:1;"/>
</g>
<defs>
<clipPath id="clip0_107_1483">
<rect width="22" height="22" fill="white" style="fill:white;fill-opacity:1;"/>
</clipPath>
</defs>
</svg>
